HIERARCHY
ROOT Pelvis
{
	OFFSET 0.000000 0.000000 0.000000
	CHANNELS 6 Xposition Yposition Zposition Xrotation Yrotation Zrotation
	JOINT LeftUpLeg_virtual
	{
		OFFSET 0.000000 0.000000 0.000000
		CHANNELS 3 Xrotation Yrotation Zrotation
		JOINT LeftUpLeg
		{
			OFFSET 18.735201 -5.666702 -4.541200
			CHANNELS 3 Xrotation Yrotation Zrotation
			JOINT LeftLeg
			{
				OFFSET -0.021200 -31.938179 0.493100
				CHANNELS 3 Xrotation Yrotation Zrotation
				JOINT LeftFoot
				{
					OFFSET 0.021200 -31.938179 -4.336299
					CHANNELS 3 Xrotation Yrotation Zrotation
					JOINT LeftToeBase
					{
						OFFSET 0.943001 -26.722000 15.023500
						CHANNELS 3 Xrotation Yrotation Zrotation
						End Site
						{
							OFFSET 0 0 0
						}
					}
				}
			}
		}
	}
	JOINT RightUpLeg_virtual
	{
		OFFSET 0.000000 0.000000 0.000000
		CHANNELS 3 Xrotation Yrotation Zrotation
		JOINT RightUpLeg
		{
			OFFSET -18.735201 -5.666702 -4.541200
			CHANNELS 3 Xrotation Yrotation Zrotation
			JOINT RightLeg
			{
				OFFSET 0.018946 -31.938133 0.493100
				CHANNELS 3 Xrotation Yrotation Zrotation
				JOINT RightFoot
				{
					OFFSET -0.018946 -31.938126 -4.336299
					CHANNELS 3 Xrotation Yrotation Zrotation
					JOINT RightToeBase
					{
						OFFSET -0.943001 -26.722004 15.023500
						CHANNELS 3 Xrotation Yrotation Zrotation
						End Site
						{
							OFFSET 0 0 0
						}
					}
				}
			}
		}
	}
	JOINT Hips_virtual
	{
		OFFSET 0.000000 0.000000 0.000000
		CHANNELS 3 Xrotation Yrotation Zrotation
		JOINT Hips
		{
			OFFSET -0.000000 -0.000000 -0.000000
			CHANNELS 3 Xrotation Yrotation Zrotation
			JOINT Spine
			{
				OFFSET 0.000000 10.199997 -0.299500
				CHANNELS 3 Xrotation Yrotation Zrotation
				JOINT Spine1
				{
					OFFSET 0.000000 11.900002 -1.516600
					CHANNELS 3 Xrotation Yrotation Zrotation
					JOINT Spine2
					{
						OFFSET 0.000000 13.600006 -2.842500
						CHANNELS 3 Xrotation Yrotation Zrotation
						JOINT Neck_virtual
						{
							OFFSET 0.000000 0.000000 0.000000
							CHANNELS 3 Xrotation Yrotation Zrotation
							JOINT Neck
							{
								OFFSET 0.000000 9.624100 -2.890100
								CHANNELS 3 Xrotation Yrotation Zrotation
								JOINT Head
								{
									OFFSET 0.000000 14.068802 -1.351900
									CHANNELS 3 Xrotation Yrotation Zrotation
									End Site
									{
										OFFSET 0 0 0
									}
								}
							}
						}
						JOINT LeftShoulder_virtual
						{
							OFFSET 0.000000 0.000000 0.000000
							CHANNELS 3 Xrotation Yrotation Zrotation
							JOINT LeftShoulder
							{
								OFFSET 15.263000 10.923401 -0.547700
								CHANNELS 3 Xrotation Yrotation Zrotation
								JOINT LeftArm
								{
									OFFSET 25.438599 -2.830597 -13.032500
									CHANNELS 3 Xrotation Yrotation Zrotation
									JOINT LeftForeArm
									{
										OFFSET 29.960503 0.000000 0.000000
										CHANNELS 3 Xrotation Yrotation Zrotation
										JOINT LeftHand
										{
											OFFSET 27.849251 0.000000 0.000000
											CHANNELS 3 Xrotation Yrotation Zrotation
											End Site
											{
												OFFSET 0 0 0
											}
										}
									}
								}
							}
						}
						JOINT RightShoulder_virtual
						{
							OFFSET 0.000000 0.000000 0.000000
							CHANNELS 3 Xrotation Yrotation Zrotation
							JOINT RightShoulder
							{
								OFFSET -15.263000 10.923401 -0.547700
								CHANNELS 3 Xrotation Yrotation Zrotation
								JOINT RightArm
								{
									OFFSET -25.438599 -2.830597 -13.032500
									CHANNELS 3 Xrotation Yrotation Zrotation
									JOINT RightForeArm
									{
										OFFSET -29.960503 0.000000 0.000000
										CHANNELS 3 Xrotation Yrotation Zrotation
										JOINT RightHand
										{
											OFFSET -27.849251 0.000000 0.000000
											CHANNELS 3 Xrotation Yrotation Zrotation
											End Site
											{
												OFFSET 0 0 0
											}
										}
									}
								}
							}
						}
					}
				}
			}
		}
	}
}
MOTION
Frames: 13
Frame Time: 0.03333333
-0.169496 92.452095 2.487211 0.000000 0.000000 0.000000 12.581648 -5.732897 -2.356793 -24.260200 11.481237 13.089078 32.367573 -1.133482 -0.071992 -15.324016 -0.971325 -5.807120 0.000000 0.000000 0.000000 9.517395 3.002516 3.886501 -16.230123 -5.521512 -9.753306 27.964514 -9.759545 1.370020 -19.985789 -14.471450 7.470325 0.000000 0.000000 0.000000 0.295159 -0.545166 0.111535 -1.309863 2.452283 -2.148696 4.408631 0.024556 0.053203 1.277425 0.169658 -0.444325 0.000000 0.000000 0.000000 4.716353 0.093977 0.648332 0.322403 -0.445441 0.442837 0.000000 0.000000 0.000000 4.110261 -1.016553 -0.020238 1.774646 -14.420971 -5.089860 2.172172 -0.954062 -60.689564 2.209852 -34.589010 -7.034105 0.000000 0.000000 0.000000 2.437929 -1.160472 1.377684 0.545010 0.860293 11.625515 5.623697 5.112157 56.263041 4.179221 37.271451 6.282847 0.000000 0.000000 0.000000 
-0.119844 92.273453 2.364611 0.000000 0.000000 0.000000 13.143021 -5.796708 -2.247151 -23.564158 11.572885 13.155498 29.881060 -1.383614 -0.101171 -17.327785 -1.109802 -6.002619 0.000000 0.000000 0.000000 9.969267 2.938927 4.334370 -15.383111 -5.700399 -9.134554 26.448253 -11.300154 1.647089 -21.299004 -16.124666 7.019016 0.000000 0.000000 0.000000 -0.858760 -0.336406 -0.568094 0.674983 3.756584 -1.347065 4.193636 -0.710434 0.034615 1.229203 0.017418 -0.124297 0.000000 0.000000 0.000000 4.795184 0.259078 0.686933 0.355365 -0.327823 0.506841 0.000000 0.000000 0.000000 3.950472 -1.426286 0.297096 2.657859 -15.759051 -4.150019 2.901776 0.783294 -60.890904 2.695235 -32.607910 -6.855273 0.000000 0.000000 0.000000 2.257698 -1.113264 1.252123 0.765000 0.746241 11.836696 5.919672 5.834651 54.954701 4.250457 38.859630 5.589493 0.000000 0.000000 0.000000 
0.479184 92.537697 3.417059 0.000000 0.000000 0.000000 13.209931 -5.450148 -2.815577 -23.002088 11.792207 12.376650 28.285910 -1.259067 -0.233639 -18.416557 -0.852684 -6.141490 0.000000 0.000000 0.000000 9.575167 3.798675 3.640297 -15.738825 -5.247085 -9.749132 25.379234 -11.860435 1.948261 -21.866837 -16.920730 7.180183 0.000000 0.000000 0.000000 0.222324 -0.049853 0.144226 -0.876690 3.701065 -1.250836 4.786400 -1.120144 -0.300464 0.633540 -0.210823 0.150021 0.000000 0.000000 0.000000 4.792027 0.157635 0.968148 0.293818 -0.468052 0.600097 0.000000 0.000000 0.000000 3.856128 -1.293169 0.664817 2.876501 -17.542723 -3.438737 0.851278 3.434484 -61.412539 1.832595 -29.694452 -7.207489 0.000000 0.000000 0.000000 2.310123 -1.190220 1.286151 1.425605 -0.439545 12.281647 5.833718 6.508810 56.535351 4.049903 37.149768 5.926517 0.000000 0.000000 0.000000 
-0.122226 92.844948 2.789337 0.000000 0.000000 0.000000 13.033001 -7.617785 -2.845408 -23.030758 11.255904 11.958654 29.494878 -1.322454 -0.435257 -17.600038 -0.837090 -6.543424 0.000000 0.000000 0.000000 10.258448 5.601486 3.568920 -14.899846 -4.860559 -9.641656 26.699505 -12.062933 2.117548 -21.150277 -17.049016 7.243952 0.000000 0.000000 0.000000 -0.301091 0.774192 -0.363912 0.973367 3.184297 -1.187475 3.405304 -1.682624 0.457253 0.592304 -0.091381 -0.003518 0.000000 0.000000 0.000000 4.510601 0.202415 1.248234 0.190664 -0.464182 0.692841 0.000000 0.000000 0.000000 4.917046 -1.437942 0.962881 3.742141 -17.203747 -1.537189 1.356526 4.230256 -62.188845 1.644890 -29.275649 -7.617156 0.000000 0.000000 0.000000 2.429453 -1.077115 1.260698 1.354949 -0.841308 13.337304 8.199481 7.035825 56.525846 5.578864 37.854599 5.353691 0.000000 0.000000 0.000000 
0.361700 92.504089 2.422897 0.000000 0.000000 0.000000 13.241269 -6.690930 -2.969985 -22.685188 11.536106 11.925251 28.595842 -0.925364 -0.367457 -18.254007 -0.448207 -6.203137 0.000000 0.000000 0.000000 10.754979 8.571096 3.251411 -14.191256 -4.102292 -9.580523 26.242514 -11.927661 2.481833 -21.576216 -17.070384 7.927659 0.000000 0.000000 0.000000 1.373812 2.382949 -0.647584 -0.119434 3.673860 -1.704991 4.263962 -1.017547 -0.377295 0.237653 0.035320 -0.031960 0.000000 0.000000 0.000000 4.499052 0.473220 1.204437 0.015456 -0.277455 0.670117 0.000000 0.000000 0.000000 4.733347 -1.543516 0.875176 3.526740 -17.562337 -2.560430 2.136025 4.384318 -62.355365 1.819859 -28.280800 -7.935491 0.000000 0.000000 0.000000 1.524826 -0.871120 1.476973 0.811968 0.359087 13.716848 7.145478 6.429898 56.965772 4.826328 38.956319 5.853435 0.000000 0.000000 0.000000 
0.943650 92.608215 1.936773 0.000000 0.000000 0.000000 12.910859 -5.881078 -3.433403 -23.365123 11.815583 11.720525 29.007953 -0.844412 -0.407925 -17.888880 -0.362614 -6.238974 0.000000 0.000000 0.000000 10.995247 7.169924 3.523450 -14.116194 -4.577137 -9.531057 25.348137 -11.964356 2.759973 -22.278139 -17.257530 8.393275 0.000000 0.000000 0.000000 -0.866897 0.581801 -0.027460 -1.445568 7.468464 -0.073532 3.082391 -1.733219 -0.691742 0.623581 0.141130 -0.243562 0.000000 0.000000 0.000000 4.666887 0.468983 1.141155 0.401752 -0.392319 0.613658 0.000000 0.000000 0.000000 4.435991 -1.587637 0.762879 3.660841 -18.168595 -2.287897 2.604624 5.666894 -63.788120 2.069249 -27.985694 -8.383689 0.000000 0.000000 0.000000 1.552987 -1.049215 1.280874 1.026755 -1.167662 13.257364 7.376019 6.945506 57.888763 5.828504 36.851589 5.823926 0.000000 0.000000 0.000000 
-0.504683 91.844261 2.274292 0.000000 0.000000 0.000000 13.400074 -6.150894 -3.168157 -22.911637 11.792754 11.999154 29.552217 -0.803625 -0.437402 -17.523499 -0.315907 -6.291893 0.000000 0.000000 0.000000 10.531074 7.210548 3.814251 -14.829545 -4.533377 -9.261632 25.034477 -12.088539 2.445641 -22.658925 -17.196461 7.805098 0.000000 0.000000 0.000000 -0.186485 1.873962 0.047325 -2.637596 7.567713 -0.796100 2.682179 -1.474834 -0.660205 0.848269 -0.494954 -0.301183 0.000000 0.000000 0.000000 4.925415 0.272358 1.199397 0.329775 -0.517550 0.559825 0.000000 0.000000 0.000000 4.542024 -1.899157 0.837595 3.786939 -20.415652 -2.005656 2.993355 5.358267 -63.451665 1.722932 -28.467173 -8.708699 0.000000 0.000000 0.000000 1.327864 -1.140594 1.163459 0.954145 -2.288878 13.107453 6.151453 5.113799 58.335867 4.731942 35.168518 6.333131 0.000000 0.000000 0.000000 
-0.200247 92.269249 2.031731 0.000000 0.000000 0.000000 13.165981 -5.761283 -2.980162 -23.267572 11.757048 12.314524 29.387114 -0.800117 -0.279656 -17.666598 -0.355279 -6.063374 0.000000 0.000000 0.000000 10.258990 7.023867 4.037651 -15.117794 -4.613779 -9.003822 25.196325 -11.877885 2.600176 -22.496780 -17.043154 8.136903 0.000000 0.000000 0.000000 0.325908 0.574980 -0.175132 -2.249527 7.783202 -1.779283 3.100460 -1.330948 0.001468 0.340243 -0.330628 -0.285983 0.000000 0.000000 0.000000 4.948793 0.486916 1.547489 0.301606 -0.511679 0.822204 0.000000 0.000000 0.000000 4.713531 -2.211961 1.006860 3.932394 -20.859230 -0.988357 2.364365 7.581540 -63.906030 0.678801 -28.525797 -8.936914 0.000000 0.000000 0.000000 1.412384 -1.070061 1.180046 0.537583 -2.436027 14.101148 7.027159 5.109040 58.662794 4.970245 36.017240 6.506515 0.000000 0.000000 0.000000 
-0.218465 92.375229 1.699045 0.000000 0.000000 0.000000 13.023187 -5.269718 -2.543263 -23.494833 11.703978 12.904324 30.024115 -0.746799 -0.053570 -17.336400 -0.419619 -5.703021 0.000000 0.000000 0.000000 10.565534 6.535657 4.306229 -14.664935 -4.843967 -8.733185 26.021877 -11.785840 2.449482 -21.888526 -16.842835 7.895689 0.000000 0.000000 0.000000 1.454686 2.330667 0.290912 -1.751913 8.833876 -1.590532 3.085014 -1.214897 -0.264981 0.383750 -0.213353 -0.167880 0.000000 0.000000 0.000000 4.965351 0.617800 1.368806 0.250414 -0.510880 0.664273 0.000000 0.000000 0.000000 4.402713 -2.111476 0.971605 3.850904 -21.275993 -1.033481 1.114039 7.674991 -63.097048 0.263266 -28.589744 -9.012552 0.000000 0.000000 0.000000 1.162943 -1.018325 1.321969 0.713402 -2.124652 14.329086 7.411730 5.857991 58.711767 5.304613 34.703792 6.356620 0.000000 0.000000 0.000000 
-0.304672 91.923058 1.580872 0.000000 0.000000 0.000000 12.587952 -4.483117 -2.828538 -24.023223 11.855602 12.742368 29.587485 -0.620089 -0.131394 -17.619967 -0.238497 -5.748132 0.000000 0.000000 0.000000 10.384222 5.909260 4.194127 -14.931847 -4.969766 -8.917434 26.213848 -11.546898 2.369052 -21.685583 -16.586945 7.884910 0.000000 0.000000 0.000000 1.816495 3.195034 0.619879 -0.650761 9.175902 -1.255461 2.996702 -1.181621 -0.247453 0.272922 -0.231223 -0.158617 0.000000 0.000000 0.000000 4.682994 0.564574 1.432495 0.098285 -0.549642 0.626207 0.000000 0.000000 0.000000 4.363086 -2.156294 1.027162 3.912464 -21.138474 -1.434661 1.279992 8.280119 -62.711136 -0.164267 -28.896741 -9.140530 0.000000 0.000000 0.000000 1.376374 -1.006433 1.346437 0.858810 -2.784845 13.966293 7.387713 5.124406 59.669188 5.323739 34.775676 6.635466 0.000000 0.000000 0.000000 
0.048293 91.893532 2.099764 0.000000 0.000000 0.000000 12.435813 -4.195700 -2.874860 -24.064932 11.876302 12.680635 29.411163 -0.738042 -0.255007 -17.700275 -0.266919 -6.005711 0.000000 0.000000 0.000000 10.337514 5.459056 3.847540 -14.970455 -5.009473 -9.321077 26.291838 -11.737303 2.290758 -21.575883 -16.732936 7.632472 0.000000 0.000000 0.000000 1.931519 3.359010 0.548073 -0.260857 7.078779 -1.543268 2.981628 -1.216557 -0.527628 0.105526 -0.258025 -0.161035 0.000000 0.000000 0.000000 4.796489 0.516969 1.311011 0.127474 -0.547726 0.591474 0.000000 0.000000 0.000000 4.610770 -2.209461 0.891094 3.922629 -21.017158 -2.116387 0.873673 8.594808 -63.206632 -0.059400 -29.130890 -9.158501 0.000000 0.000000 0.000000 1.385396 -0.972596 1.331648 1.209874 -2.806218 14.688800 8.204143 5.029747 59.322659 5.232643 34.553866 6.490298 0.000000 0.000000 0.000000 
0.117892 91.891457 2.072634 0.000000 0.000000 0.000000 12.958611 -3.795619 -2.794949 -23.370710 12.055210 12.774412 30.035115 -0.804939 -0.160827 -17.253145 -0.400513 -5.909089 0.000000 0.000000 0.000000 10.237632 5.287313 3.607627 -14.937193 -4.984999 -9.517362 26.523301 -11.700382 2.474210 -21.289293 -16.798546 7.937236 0.000000 0.000000 0.000000 1.816327 3.072349 0.849963 -0.576699 8.955284 -0.920849 3.135025 -1.173165 -0.571760 0.063434 -0.315103 -0.241667 0.000000 0.000000 0.000000 4.871679 0.708724 1.235302 0.020255 -0.441307 0.556499 0.000000 0.000000 0.000000 4.785197 -1.998869 0.893155 3.903535 -20.613777 -2.370928 2.078038 9.154176 -63.592708 -0.360427 -28.275703 -9.293022 0.000000 0.000000 0.000000 1.797650 -0.993399 1.185133 1.449199 -3.253466 14.230602 8.136292 4.911148 58.922061 5.161162 35.099861 6.196276 0.000000 0.000000 0.000000 
-0.052145 91.710403 1.727457 0.000000 0.000000 0.000000 12.998685 -4.056242 -2.612180 -23.124755 11.926564 12.845277 29.717941 -0.697242 0.001147 -17.403529 -0.372641 -5.592749 0.000000 0.000000 0.000000 10.488106 5.693893 3.576080 -14.301303 -4.886442 -9.364120 25.954772 -11.364829 2.458226 -21.576673 -16.538634 8.139238 0.000000 0.000000 0.000000 1.461705 4.616173 0.751584 -0.101062 10.207374 -0.735676 2.893471 -0.930167 -0.780673 -0.054955 -0.323825 -0.360097 0.000000 0.000000 0.000000 4.731472 0.812110 1.217444 0.053674 -0.400499 0.576459 0.000000 0.000000 0.000000 4.997710 -1.963339 0.837063 4.072221 -21.086727 -2.346822 1.576657 8.967404 -63.525609 -0.141552 -27.889344 -9.066908 0.000000 0.000000 0.000000 1.909107 -1.095439 1.136182 1.957664 -3.699971 14.395650 8.735610 4.405406 58.042278 5.559072 33.105223 5.695186 0.000000 0.000000 0.000000 
